<svg width="80" height="80" viewBox="0 0 80 80" fill="none" xmlns="http://www.w3.org/2000/svg">
<g clip-path="url(#clip0_65_61)">
<path fill-rule="evenodd" clip-rule="evenodd" d="M40 80C17.908 80 7.62939e-06 62.0906 7.62939e-06 40C7.62939e-06 17.908 17.9094 7.62939e-06 40 7.62939e-06C62.092 7.62939e-06 80 17.9094 80 40C80 62.092 62.0906 80 40 80ZM46.675 50.8033C48.2138 52.3422 48.2138 54.8389 46.675 56.3777C45.1362 57.9166 42.6395 57.9166 41.1006 56.3777L27.2039 42.481C25.665 40.9422 25.665 38.4455 27.2039 36.9066L41.1263 22.9842C42.6651 21.4453 45.1618 21.4453 46.7007 22.9842C48.2395 24.523 48.2395 27.0197 46.7007 28.5586L35.5648 39.6945L46.675 50.8048V50.8033Z" fill="white"/>
</g>
<defs>
<clipPath id="clip0_65_61">
<rect width="80" height="80" fill="white" transform="translate(80 80) rotate(-180)"/>
</clipPath>
</defs>
</svg>
