<svg width="596" height="120" viewBox="0 0 596 120" fill="none" xmlns="http://www.w3.org/2000/svg">
<path d="M530.708 89.84C530.708 85.68 531.628 82.24 533.468 79.52C535.388 76.8 538.148 73.8 541.748 70.52C544.388 68.12 546.308 66.12 547.508 64.52C548.788 62.84 549.428 60.96 549.428 58.88C549.428 55.92 548.228 53.6 545.828 51.92C543.508 50.16 540.388 49.28 536.468 49.28C532.708 49.28 529.348 50.08 526.388 51.68C523.508 53.2 521.068 55.36 519.068 58.16L504.548 49.64C507.908 44.52 512.428 40.56 518.108 37.76C523.868 34.96 530.668 33.56 538.508 33.56C547.708 33.56 555.068 35.52 560.588 39.44C566.188 43.36 568.988 48.8 568.988 55.76C568.988 59.04 568.428 61.92 567.308 64.4C566.268 66.88 564.948 69 563.348 70.76C561.828 72.44 559.828 74.4 557.348 76.64C554.388 79.28 552.228 81.52 550.868 83.36C549.508 85.12 548.828 87.28 548.828 89.84H530.708ZM539.828 119.96C536.548 119.96 533.788 118.92 531.548 116.84C529.388 114.68 528.308 112.08 528.308 109.04C528.308 106 529.388 103.48 531.548 101.48C533.708 99.4 536.468 98.36 539.828 98.36C543.188 98.36 545.948 99.4 548.108 101.48C550.268 103.48 551.348 106 551.348 109.04C551.348 112.08 550.228 114.68 547.988 116.84C545.828 118.92 543.108 119.96 539.828 119.96Z" fill="black"/>
<path fill-rule="evenodd" clip-rule="evenodd" d="M128.507 25.3862C101.91 25.3862 80.3633 46.4288 80.3633 72.3816C80.3633 98.3388 101.91 119.383 128.507 119.383C155.09 119.383 176.648 98.3403 176.648 72.3816C176.648 46.4288 155.09 25.3862 128.507 25.3862ZM205.233 72.3816V116.093H232.286V72.3816C231.939 56.8822 243.897 50.3992 255.992 50.3992V25.3892C228.959 25.3892 204.893 43.112 205.234 72.3816H205.233ZM489.992 43.7892L471.606 25.4364L442.974 54.0184L414.34 25.4364L395.941 43.7892L424.573 72.3816L395.941 100.987L414.34 119.343L442.974 90.7507L471.606 119.343L489.992 100.987L461.365 72.3816L489.992 43.7892ZM27.0571 0H0.00361728V72.3889C-0.33915 101.66 23.7284 119.39 50.7612 119.39V94.361C38.6757 94.361 26.7173 87.8987 27.0556 72.3889V52.4618H55.6693V28.1482H27.0556V0L27.0571 0ZM327.63 25.3906C301.643 25.3906 280.572 46.4332 280.572 72.383C280.572 98.3476 301.643 119.39 327.63 119.39C340.116 119.39 352.083 114.436 360.921 105.621L344.567 89.2944C340.342 94.1914 334.324 97.2573 327.63 97.2573C317.96 97.2573 309.673 90.851 306.234 81.752H373.748C374.381 79.2261 374.693 75.1967 374.693 72.383C374.693 46.4332 353.621 25.3906 327.63 25.3906ZM306.234 63.02C309.673 53.9299 317.96 47.5162 327.63 47.5162C337.307 47.5162 345.6 53.9284 349.028 63.02H306.234ZM128.507 95.0589C116.864 95.0589 107.455 84.9021 107.455 72.3816C107.455 59.8596 116.864 49.7131 128.507 49.7131C140.135 49.7131 149.549 59.8596 149.549 72.3816C149.549 84.9021 140.135 95.0589 128.507 95.0589Z" fill="black"/>
</svg>
